<mxfile host="app.diagrams.net" agent="Mozilla/5.0 (Windows NT 10.0; Win64; x64) AppleWebKit/537.36 (KHTML, like Gecko) Chrome/140.0.0.0 Safari/537.36 Edg/140.0.0.0" version="28.2.5">
  <diagram name="Страница — 1" id="k548JDH0ln-WSsu-_sc7">
    <mxGraphModel dx="1418" dy="1963" grid="1" gridSize="10" guides="1" tooltips="1" connect="1" arrows="1" fold="1" page="1" pageScale="1" pageWidth="827" pageHeight="1169" math="0" shadow="0">
      <root>
        <mxCell id="0" />
        <mxCell id="1" parent="0" />
        <mxCell id="2Fx1NnxlWseVZywLHwXI-1" value="" style="rounded=1;whiteSpace=wrap;html=1;fillColor=#dae8fc;strokeColor=#6c8ebf;" parent="1" vertex="1">
          <mxGeometry x="120" y="-30" width="370" height="710" as="geometry" />
        </mxCell>
        <mxCell id="2Fx1NnxlWseVZywLHwXI-2" value="" style="rounded=1;whiteSpace=wrap;html=1;fillColor=#f5f5f5;gradientColor=#b3b3b3;strokeColor=#666666;" parent="1" vertex="1">
          <mxGeometry x="245" y="-20" width="115" height="30" as="geometry" />
        </mxCell>
        <mxCell id="2Fx1NnxlWseVZywLHwXI-3" value="&lt;font style=&quot;font-size: 22px;&quot;&gt;УМНЫЙ СПИСОК ЗАДАЧ&lt;/font&gt;" style="rounded=0;whiteSpace=wrap;html=1;fillColor=#d5e8d4;strokeColor=#82b366;" parent="1" vertex="1">
          <mxGeometry x="154.5" y="20" width="296" height="40" as="geometry" />
        </mxCell>
        <mxCell id="2Fx1NnxlWseVZywLHwXI-4" value="&lt;font style=&quot;font-size: 22px;&quot; face=&quot;Times New Roman&quot;&gt;🔎 [поиск задач&lt;/font&gt;" style="rounded=0;whiteSpace=wrap;html=1;align=left;fillColor=#e1d5e7;strokeColor=#9673a6;" parent="1" vertex="1">
          <mxGeometry x="154.5" y="70" width="296" height="40" as="geometry" />
        </mxCell>
        <mxCell id="2Fx1NnxlWseVZywLHwXI-5" value="&lt;font face=&quot;Times New Roman&quot; style=&quot;font-size: 22px;&quot;&gt;&amp;nbsp; &lt;b style=&quot;&quot;&gt;+&lt;/b&gt;&amp;nbsp; [новая задача&lt;/font&gt;" style="rounded=0;whiteSpace=wrap;html=1;align=left;fillColor=#e1d5e7;strokeColor=#9673a6;" parent="1" vertex="1">
          <mxGeometry x="154.5" y="120" width="296" height="40" as="geometry" />
        </mxCell>
        <mxCell id="2Fx1NnxlWseVZywLHwXI-6" value="&lt;div style=&quot;&quot;&gt;&lt;font face=&quot;Times New Roman&quot; style=&quot;font-size: 19px; color: rgb(0, 0, 0);&quot;&gt;&lt;font style=&quot;&quot;&gt;КАТЕГОРИИ:[работа]&lt;/font&gt;&lt;span style=&quot;background-color: transparent;&quot;&gt;&amp;nbsp;[покупки]&amp;nbsp; [дом] [добавить]&lt;/span&gt;&lt;/font&gt;&lt;/div&gt;" style="rounded=0;whiteSpace=wrap;html=1;align=left;fillColor=#f5f5f5;strokeColor=#666666;fontColor=#333333;" parent="1" vertex="1">
          <mxGeometry x="154.5" y="170" width="295.5" height="70" as="geometry" />
        </mxCell>
        <mxCell id="2Fx1NnxlWseVZywLHwXI-7" value="&lt;font face=&quot;Times New Roman&quot; style=&quot;font-size: 19px; color: rgb(0, 0, 0);&quot;&gt;Список задач:&lt;/font&gt;&lt;div&gt;&lt;font face=&quot;Times New Roman&quot; style=&quot;font-size: 19px; color: rgb(0, 0, 0);&quot;&gt;✅ Записать ко врачу&lt;/font&gt;&lt;/div&gt;&lt;div&gt;&lt;font face=&quot;Times New Roman&quot; style=&quot;font-size: 19px; color: rgb(0, 0, 0);&quot;&gt;&lt;br&gt;&lt;/font&gt;&lt;/div&gt;&lt;div&gt;&lt;span style=&quot;background-color: transparent;&quot;&gt;&lt;font face=&quot;Times New Roman&quot; style=&quot;font-size: 19px; color: rgb(0, 0, 0);&quot;&gt;&amp;nbsp;🪶 Купить продукты в магазине&lt;/font&gt;&lt;/span&gt;&lt;/div&gt;&lt;div&gt;&lt;font style=&quot;font-size: 19px; color: rgb(0, 0, 0);&quot; face=&quot;Times New Roman&quot;&gt;&lt;br&gt;&lt;/font&gt;&lt;div&gt;&lt;span style=&quot;background-color: transparent;&quot;&gt;&lt;font face=&quot;Times New Roman&quot; style=&quot;font-size: 19px; color: rgb(0, 0, 0);&quot;&gt;&amp;nbsp;🪶 Написание кода&lt;/font&gt;&lt;/span&gt;&lt;/div&gt;&lt;div&gt;&lt;font style=&quot;font-size: 19px; color: rgb(0, 0, 0);&quot; face=&quot;Times New Roman&quot;&gt;&lt;br&gt;&lt;/font&gt;&lt;div&gt;&lt;div&gt;&lt;font face=&quot;Times New Roman&quot; style=&quot;font-size: 19px; color: rgb(0, 0, 0);&quot;&gt;✅ Занятие спортом&lt;/font&gt;&lt;/div&gt;&lt;div&gt;&lt;font face=&quot;Times New Roman&quot; style=&quot;font-size: 19px; color: rgb(0, 0, 0);&quot;&gt;&lt;br&gt;&lt;/font&gt;&lt;/div&gt;&lt;div&gt;&lt;font face=&quot;Times New Roman&quot; style=&quot;font-size: 19px; color: rgb(0, 0, 0);&quot;&gt;&amp;nbsp;🪶 Встреча с командой в 15:00&lt;/font&gt;&lt;/div&gt;&lt;div&gt;&lt;font face=&quot;Times New Roman&quot; style=&quot;font-size: 19px; color: rgb(0, 0, 0);&quot;&gt;&lt;br&gt;&lt;/font&gt;&lt;/div&gt;&lt;div&gt;&lt;font face=&quot;Times New Roman&quot; style=&quot;font-size: 19px; color: rgb(0, 0, 0);&quot;&gt;&amp;nbsp;🪶 Забрать посылку&lt;/font&gt;&lt;/div&gt;&lt;/div&gt;&lt;/div&gt;&lt;/div&gt;" style="rounded=0;whiteSpace=wrap;html=1;align=left;fillColor=#f5f5f5;fontColor=#333333;strokeColor=#666666;" parent="1" vertex="1">
          <mxGeometry x="154" y="250" width="216" height="380" as="geometry" />
        </mxCell>
        <mxCell id="2Fx1NnxlWseVZywLHwXI-8" value="&lt;div&gt;&lt;font style=&quot;font-size: 22px;&quot;&gt;&lt;br&gt;&lt;/font&gt;&lt;/div&gt;&lt;font style=&quot;font-size: 22px;&quot;&gt;🏥&lt;/font&gt;&lt;div&gt;&lt;span style=&quot;font-size: 22px;&quot;&gt;&lt;br&gt;&lt;/span&gt;&lt;div&gt;&lt;div&gt;&lt;font style=&quot;font-size: 22px;&quot;&gt;🛒&lt;/font&gt;&lt;/div&gt;&lt;div&gt;&lt;font style=&quot;font-size: 22px;&quot;&gt;&lt;br&gt;&lt;/font&gt;&lt;/div&gt;&lt;div&gt;&lt;div&gt;&lt;font style=&quot;font-size: 22px;&quot;&gt;👩‍💻&lt;/font&gt;&lt;/div&gt;&lt;div&gt;&lt;font style=&quot;font-size: 22px;&quot;&gt;&lt;br&gt;&lt;/font&gt;&lt;/div&gt;&lt;div&gt;&lt;font style=&quot;font-size: 22px;&quot;&gt;❤️‍🩹&lt;/font&gt;&lt;/div&gt;&lt;div&gt;&lt;font style=&quot;font-size: 22px;&quot;&gt;&lt;br&gt;&lt;/font&gt;&lt;/div&gt;&lt;div&gt;&lt;div&gt;&lt;font style=&quot;font-size: 22px;&quot;&gt;👨🏻‍👩🏻‍👦🏻‍👦🏻&lt;/font&gt;&lt;/div&gt;&lt;div&gt;&lt;span style=&quot;font-size: 22px;&quot;&gt;&lt;br&gt;&lt;/span&gt;&lt;div&gt;&lt;font style=&quot;font-size: 22px;&quot;&gt;🛍️&lt;/font&gt;&lt;/div&gt;&lt;/div&gt;&lt;/div&gt;&lt;/div&gt;&lt;/div&gt;&lt;/div&gt;" style="rounded=0;whiteSpace=wrap;html=1;fillColor=#f5f5f5;fontColor=#333333;strokeColor=#666666;" parent="1" vertex="1">
          <mxGeometry x="370" y="250" width="80" height="380" as="geometry" />
        </mxCell>
        <mxCell id="2Fx1NnxlWseVZywLHwXI-10" value="" style="rounded=1;whiteSpace=wrap;html=1;fillColor=light-dark(#000000, #1a1a1a);gradientColor=light-dark(#000000, #535353);strokeColor=#666666;" parent="1" vertex="1">
          <mxGeometry x="150" y="640" width="300" height="30" as="geometry" />
        </mxCell>
      </root>
    </mxGraphModel>
  </diagram>
</mxfile>
